<svg width="48" height="48" viewBox="0 0 48 48" fill="none" xmlns="http://www.w3.org/2000/svg">
<path d="M23.9999 0C37.2555 0 48 10.746 48 24.0001C48 37.2542 37.2555 48 23.9999 48C10.7443 48 0 37.254 0 24.0001C0 10.7462 10.7445 0 23.9999 0Z" fill="#44B893"/>
<path d="M13.5239 32.9759H18.018V17.9969H13.5239V32.9759ZM31.032 17.478C28.851 17.478 26.8995 18.2745 25.5151 20.0326V17.9476H21.0046V32.9761H25.5151V24.8491C25.5151 23.1316 27.0886 21.456 29.0596 21.456C31.0305 21.456 31.5166 23.1316 31.5166 24.8071V32.9746H36.0106V24.4726C36.0105 18.567 33.2145 17.478 31.032 17.478ZM15.7499 16.5C16.992 16.5 18 15.4919 18 14.2499C18 13.0079 16.992 12 15.7499 12C14.5079 12 13.4999 13.008 13.4999 14.2501C13.4999 15.4921 14.5079 16.5 15.7499 16.5Z" fill="white"/>
</svg>
